#define add_frm_before_width 17
#define add_frm_before_height 17
static char add_frm_before_bits[] = {
  0x00, 0x00, 0x00, 0x00, 0x00, 0x00, 0x00, 0x7F, 0x00, 0x00, 0x41, 0x00, 
  0x00, 0x41, 0x00, 0x00, 0x41, 0x00, 0x10, 0x41, 0x00, 0x10, 0x41, 0x00, 
  0x7C, 0x41, 0x00, 0x10, 0x41, 0x00, 0x10, 0x41, 0x00, 0x00, 0x41, 0x00, 
  0x00, 0x7F, 0x00, 0x00, 0x41, 0x00, 0x00, 0x7F, 0x00, 0x00, 0x00, 0x00, 
  0x00, 0x00, 0x00, };
