#define cell_select_width 9
#define cell_select_height 19
static char cell_select_bits[] = {
  0xFF, 0x01, 0x01, 0x01, 0x01, 0x01, 0x01, 0x01, 0x01, 0x01, 0x01, 0x01, 
  0x01, 0x01, 0x01, 0x01, 0x01, 0x01, 0x01, 0x01, 0x01, 0x01, 0x01, 0x01, 
  0x01, 0x01, 0x01, 0x01, 0x01, 0x01, 0xFF, 0x01, 0xFF, 0x01, 0xFF, 0x01, 
  0xFF, 0x01, };
