#define cell_width 9
#define cell_height 19
static char cell_bits[] = {
  0xFF, 0x01, 0x01, 0x01, 0x01, 0x01, 0x01, 0x01, 0x01, 0x01, 0x01, 0x01, 
  0x01, 0x01, 0x01, 0x01, 0x01, 0x01, 0x01, 0x01, 0x01, 0x01, 0x01, 0x01, 
  0x01, 0x01, 0x01, 0x01, 0x01, 0x01, 0xFF, 0x01, 0x01, 0x01, 0x01, 0x01, 
  0xFF, 0x01, };
