#define cell_clone_width 9
#define cell_clone_height 19
static char cell_clone_bits[] = {
  0xFF, 0x01, 0x01, 0x01, 0x7D, 0x01, 0x01, 0x01, 0x7D, 0x01, 0x01, 0x01, 
  0x01, 0x01, 0x01, 0x01, 0x01, 0x01, 0x01, 0x01, 0x01, 0x01, 0x01, 0x01, 
  0x01, 0x01, 0x01, 0x01, 0x01, 0x01, 0xFF, 0x01, 0x01, 0x01, 0x01, 0x01, 
  0xFF, 0x01, };
