#define del_cell_content_width 19
#define del_cell_content_height 19
static char del_cell_content_bits[] = {
  0xFF, 0xFF, 0x07, 0x01, 0x00, 0x04, 0x01, 0x00, 0x04, 0x01, 0x00, 0x04, 
  0x11, 0x40, 0x04, 0x21, 0x20, 0x04, 0x41, 0x10, 0x04, 0x81, 0x08, 0x04, 
  0x01, 0x05, 0x04, 0x01, 0x02, 0x04, 0x01, 0x05, 0x04, 0x81, 0x08, 0x04, 
  0x41, 0x10, 0x04, 0x21, 0x20, 0x04, 0x11, 0x40, 0x04, 0x01, 0x00, 0x04, 
  0x01, 0x00, 0x04, 0x01, 0x00, 0x04, 0xFF, 0xFF, 0x07, };
