#define copy_frm_after_width 17
#define copy_frm_after_height 17
static char copy_frm_after_bits[] = {
  0x00, 0x00, 0x00, 0x00, 0x00, 0x00, 0xFC, 0x79, 0x00, 0x04, 0x41, 0x00, 
  0x04, 0x41, 0x00, 0x04, 0x41, 0x00, 0x04, 0x41, 0x00, 0x04, 0x41, 0x00, 
  0x04, 0x41, 0x00, 0x04, 0x41, 0x00, 0x04, 0x41, 0x00, 0x04, 0x41, 0x00, 
  0xFC, 0x79, 0x00, 0x04, 0x41, 0x00, 0xFC, 0x79, 0x00, 0x00, 0x00, 0x00, 
  0x00, 0x00, 0x00, };
