#define copy_frm_before_width 17
#define copy_frm_before_height 17
static char copy_frm_before_bits[] = {
  0x00, 0x00, 0x00, 0x00, 0x00, 0x00, 0x3C, 0x7F, 0x00, 0x04, 0x41, 0x00, 
  0x04, 0x41, 0x00, 0x04, 0x41, 0x00, 0x04, 0x41, 0x00, 0x04, 0x41, 0x00, 
  0x04, 0x41, 0x00, 0x04, 0x41, 0x00, 0x04, 0x41, 0x00, 0x04, 0x41, 0x00, 
  0x3C, 0x7F, 0x00, 0x04, 0x41, 0x00, 0x3C, 0x7F, 0x00, 0x00, 0x00, 0x00, 
  0x00, 0x00, 0x00, };
