#define del_clone_width 19
#define del_clone_height 19
static char del_clone_bits[] = {
  0xFF, 0xFF, 0x07, 0x01, 0x00, 0x04, 0x01, 0x00, 0x04, 0x09, 0x80, 0x04, 
  0x11, 0x40, 0x04, 0x21, 0x20, 0x04, 0x41, 0x10, 0x04, 0xF1, 0x7F, 0x04, 
  0x01, 0x05, 0x04, 0x01, 0x02, 0x04, 0x01, 0x05, 0x04, 0xF1, 0x7F, 0x04, 
  0x41, 0x10, 0x04, 0x21, 0x20, 0x04, 0x11, 0x40, 0x04, 0x09, 0x80, 0x04, 
  0x01, 0x00, 0x04, 0x01, 0x00, 0x04, 0xFF, 0xFF, 0x07, };
