#define del_frm_width 17
#define del_frm_height 17
static char del_frm_bits[] = {
  0x00, 0x00, 0x00, 0x00, 0x00, 0x00, 0xE4, 0x4F, 0x00, 0x28, 0x28, 0x00, 
  0x30, 0x18, 0x00, 0x20, 0x08, 0x00, 0x60, 0x0C, 0x00, 0xA0, 0x0A, 0x00, 
  0x20, 0x09, 0x00, 0xA0, 0x0A, 0x00, 0x60, 0x0C, 0x00, 0x20, 0x08, 0x00, 
  0xF0, 0x1F, 0x00, 0x28, 0x28, 0x00, 0xE4, 0x4F, 0x00, 0x00, 0x00, 0x00, 
  0x00, 0x00, 0x00, };
