#define frm_width 9
#define frm_height 19
static char frm_bits[] = {
  0xFF, 0x01, 0x01, 0x01, 0x01, 0x01, 0x01, 0x01, 0x01, 0x01, 0x01, 0x01, 
  0x01, 0x01, 0x01, 0x01, 0x01, 0x01, 0x01, 0x01, 0x01, 0x01, 0x01, 0x01, 
  0x01, 0x01, 0x01, 0x01, 0x01, 0x01, 0xFF, 0x01, 0x01, 0x01, 0x01, 0x01, 
  0xFF, 0x01, };
