#define frm_select_width 7
#define frm_select_height 17
static char frm_select_bits[] = {
  0x00, 0x00, 0x00, 0x00, 0x00, 0x00, 0x00, 0x00, 0x00, 0x00, 0x00, 0x00, 
  0x00, 0x00, 0x7F, 0x7F, 0x7F, };
