#define 2c6c3e2c14444aafa9a275a8ef28d6c6_width 19
#define 2c6c3e2c14444aafa9a275a8ef28d6c6_height 19
static char 2c6c3e2c14444aafa9a275a8ef28d6c6_bits[] = {
  0xFF, 0xFF, 0x07, 0x01, 0x00, 0x04, 0x01, 0x00, 0x04, 0x01, 0x00, 0x04, 
  0x01, 0x00, 0x04, 0x01, 0x00, 0x04, 0x01, 0x00, 0x04, 0x21, 0x20, 0x04, 
  0x41, 0x10, 0x04, 0x81, 0x08, 0x04, 0x01, 0x05, 0x04, 0x01, 0x02, 0x04, 
  0x01, 0x00, 0x04, 0x01, 0x00, 0x04, 0x01, 0x00, 0x04, 0x01, 0x00, 0x04, 
  0x01, 0x00, 0x04, 0x01, 0x00, 0x04, 0xFF, 0xFF, 0x07, };
