#define go_to_first_cell_width 19
#define go_to_first_cell_height 19
static char go_to_first_cell_bits[] = {
  0xFF, 0xFF, 0x07, 0x01, 0x00, 0x04, 0x01, 0x00, 0x04, 0x01, 0x00, 0x04, 
  0x01, 0x00, 0x04, 0x41, 0x10, 0x04, 0x41, 0x08, 0x04, 0x41, 0x04, 0x04, 
  0x41, 0x02, 0x04, 0x41, 0x01, 0x04, 0x41, 0x02, 0x04, 0x41, 0x04, 0x04, 
  0x41, 0x08, 0x04, 0x41, 0x10, 0x04, 0x01, 0x00, 0x04, 0x01, 0x00, 0x04, 
  0x01, 0x00, 0x04, 0x01, 0x00, 0x04, 0xFF, 0xFF, 0x07, };
