#define a4f9e65ca97840edad81fb9f1923b151_width 19
#define a4f9e65ca97840edad81fb9f1923b151_height 19
static char a4f9e65ca97840edad81fb9f1923b151_bits[] = {
  0xFF, 0xFF, 0x07, 0x01, 0x00, 0x04, 0x01, 0x20, 0x04, 0x01, 0xA8, 0x04, 
  0x01, 0x50, 0x04, 0x01, 0x8C, 0x05, 0x01, 0x50, 0x04, 0x01, 0xA8, 0x04, 
  0x01, 0x20, 0x04, 0xE1, 0x03, 0x04, 0x31, 0x02, 0x04, 0x11, 0x04, 0x04, 
  0x11, 0x04, 0x04, 0x19, 0x04, 0x04, 0x0D, 0x02, 0x04, 0xE9, 0x03, 0x04, 
  0x1D, 0x00, 0x04, 0x01, 0x00, 0x04, 0xFF, 0xFF, 0x07, };
