#define play_width 19
#define play_height 19
static char play_bits[] = {
  0xFF, 0xFF, 0x07, 0x01, 0x00, 0x04, 0x01, 0x00, 0x04, 0x01, 0x00, 0x04, 
  0x01, 0x00, 0x04, 0x81, 0x00, 0x04, 0x81, 0x01, 0x04, 0x81, 0x03, 0x04, 
  0x81, 0x07, 0x04, 0x81, 0x0F, 0x04, 0x81, 0x07, 0x04, 0x81, 0x03, 0x04, 
  0x81, 0x01, 0x04, 0x81, 0x00, 0x04, 0x01, 0x00, 0x04, 0x01, 0x00, 0x04, 
  0x01, 0x00, 0x04, 0x01, 0x00, 0x04, 0xFF, 0xFF, 0x07, };
