#define play_width 17
#define play_height 17
static char play_bits[] = {
  0x00, 0x00, 0x00, 0x00, 0x00, 0x00, 0x00, 0x00, 0x00, 0x00, 0x00, 0x00, 
  0x40, 0x00, 0x00, 0xC0, 0x00, 0x00, 0xC0, 0x01, 0x00, 0xC0, 0x03, 0x00, 
  0xC0, 0x07, 0x00, 0xC0, 0x03, 0x00, 0xC0, 0x01, 0x00, 0xC0, 0x00, 0x00, 
  0x40, 0x00, 0x00, 0x00, 0x00, 0x00, 0x00, 0x00, 0x00, 0x00, 0x00, 0x00, 
  0x00, 0x00, 0x00, };
