#define 62eff36f54b34c6f81bd6aee12dfb8e9_width 19
#define 62eff36f54b34c6f81bd6aee12dfb8e9_height 19
static char 62eff36f54b34c6f81bd6aee12dfb8e9_bits[] = {
  0xFF, 0xFF, 0x07, 0x01, 0x00, 0x04, 0xDD, 0xDD, 0x05, 0x55, 0x55, 0x05, 
  0x55, 0x55, 0x05, 0x55, 0x55, 0x05, 0xDD, 0xDD, 0x05, 0x55, 0x55, 0x05, 
  0xDD, 0xDD, 0x05, 0x01, 0x00, 0x04, 0x01, 0x02, 0x04, 0x01, 0x02, 0x04, 
  0x81, 0x0A, 0x04, 0x01, 0x07, 0x04, 0x71, 0x72, 0x04, 0x11, 0x40, 0x04, 
  0xF1, 0x7F, 0x04, 0x01, 0x00, 0x04, 0xFF, 0xFF, 0x07, };
