#define fa8f20702cdc4e07c6276f6324a5b920_width 19
#define fa8f20702cdc4e07c6276f6324a5b920_height 19
static char fa8f20702cdc4e07c6276f6324a5b920_bits[] = {
  0xFF, 0xFF, 0x07, 0x01, 0x00, 0x04, 0x01, 0x1F, 0x04, 0x81, 0x11, 0x04, 
  0x81, 0x20, 0x04, 0x81, 0x20, 0x04, 0xC1, 0x20, 0x04, 0x61, 0x10, 0x04, 
  0x41, 0x1F, 0x04, 0xE1, 0x00, 0x04, 0x01, 0x02, 0x04, 0x01, 0x02, 0x04, 
  0x81, 0x0A, 0x04, 0x01, 0x07, 0x04, 0x71, 0x72, 0x04, 0x11, 0x40, 0x04, 
  0xF1, 0x7F, 0x04, 0x01, 0x00, 0x04, 0xFF, 0xFF, 0x07, };
