#define 33a81b55a9334aaaecbd79905758117c_width 19
#define 33a81b55a9334aaaecbd79905758117c_height 19
static char 33a81b55a9334aaaecbd79905758117c_bits[] = {
  0xFF, 0xFF, 0x07, 0x01, 0x00, 0x04, 0x01, 0x07, 0x04, 0x01, 0x05, 0x04, 
  0x01, 0x05, 0x04, 0x01, 0x05, 0x04, 0x01, 0x07, 0x04, 0x01, 0x05, 0x04, 
  0x01, 0x07, 0x04, 0x01, 0x00, 0x04, 0x01, 0x02, 0x04, 0x01, 0x02, 0x04, 
  0x81, 0x0A, 0x04, 0x01, 0x07, 0x04, 0x71, 0x72, 0x04, 0x11, 0x40, 0x04, 
  0xF1, 0x7F, 0x04, 0x01, 0x00, 0x04, 0xFF, 0xFF, 0x07, };
