#define add_cell_after_width 19
#define add_cell_after_height 19
static char add_cell_after_bits[] = {
  0xFF, 0xFF, 0x07, 0x01, 0x00, 0x04, 0x01, 0x00, 0x04, 0xF9, 0x03, 0x04, 
  0x09, 0x02, 0x04, 0x09, 0x02, 0x04, 0x09, 0x02, 0x04, 0x09, 0x22, 0x04, 
  0x09, 0x22, 0x04, 0x09, 0xFA, 0x04, 0x09, 0x22, 0x04, 0x09, 0x22, 0x04, 
  0x09, 0x02, 0x04, 0xF9, 0x03, 0x04, 0x09, 0x02, 0x04, 0xF9, 0x03, 0x04, 
  0x01, 0x00, 0x04, 0x01, 0x00, 0x04, 0xFF, 0xFF, 0x07, };
