#define 1510240953688_width 19
#define 1510240953688_height 19
static char 1510240953688_bits[] = {
  0xFF, 0xFF, 0x07, 0x01, 0x00, 0x04, 0x01, 0x38, 0x04, 0x01, 0xD6, 0x04, 
  0x01, 0x92, 0x04, 0x01, 0x11, 0x05, 0x01, 0x71, 0x05, 0x01, 0x01, 0x05, 
  0x05, 0x82, 0x04, 0x0D, 0xC6, 0x04, 0x1D, 0x38, 0x04, 0x3D, 0x00, 0x04, 
  0x7D, 0x00, 0x04, 0x3D, 0x00, 0x04, 0x1D, 0x00, 0x04, 0x0D, 0x00, 0x04, 
  0x05, 0x00, 0x04, 0x01, 0x00, 0x04, 0xFF, 0xFF, 0x07, };
