#define del_cell_width 19
#define del_cell_height 19
static char del_cell_bits[] = {
  0xFF, 0xFF, 0x07, 0x01, 0x00, 0x04, 0x01, 0x00, 0x04, 0xC9, 0x9F, 0x04, 
  0x51, 0x50, 0x04, 0x61, 0x30, 0x04, 0x41, 0x10, 0x04, 0xC1, 0x18, 0x04, 
  0x41, 0x15, 0x04, 0x41, 0x12, 0x04, 0x41, 0x15, 0x04, 0xC1, 0x18, 0x04, 
  0x41, 0x10, 0x04, 0xE1, 0x3F, 0x04, 0x51, 0x50, 0x04, 0xC9, 0x9F, 0x04, 
  0x01, 0x00, 0x04, 0x01, 0x00, 0x04, 0xFF, 0xFF, 0x07, };
