#define next_cell_width 19
#define next_cell_height 19
static char next_cell_bits[] = {
  0xFF, 0xFF, 0x07, 0x01, 0x00, 0x04, 0x01, 0x00, 0x04, 0x01, 0x00, 0x04, 
  0x01, 0x00, 0x04, 0x81, 0x00, 0x04, 0x01, 0x01, 0x04, 0x01, 0x02, 0x04, 
  0x01, 0x04, 0x04, 0x01, 0x08, 0x04, 0x01, 0x04, 0x04, 0x01, 0x02, 0x04, 
  0x01, 0x01, 0x04, 0x81, 0x00, 0x04, 0x01, 0x00, 0x04, 0x01, 0x00, 0x04, 
  0x01, 0x00, 0x04, 0x01, 0x00, 0x04, 0xFF, 0xFF, 0x07, };
