#define 52b40d28e0c54f37cb01408d3f492fa6_width 19
#define 52b40d28e0c54f37cb01408d3f492fa6_height 19
static char 52b40d28e0c54f37cb01408d3f492fa6_bits[] = {
  0xFF, 0xFF, 0x07, 0x01, 0x00, 0x04, 0x01, 0x1F, 0x04, 0x81, 0x11, 0x04, 
  0x81, 0x20, 0x04, 0x81, 0x20, 0x04, 0xC1, 0x20, 0x04, 0x61, 0x10, 0x04, 
  0x41, 0x1F, 0x04, 0xE1, 0x00, 0x04, 0x01, 0x02, 0x04, 0x01, 0x07, 0x04, 
  0x81, 0x0A, 0x04, 0x01, 0x02, 0x04, 0x71, 0x72, 0x04, 0x11, 0x40, 0x04, 
  0xF1, 0x7F, 0x04, 0x01, 0x00, 0x04, 0xFF, 0xFF, 0x07, };
