#define 1510240946950_width 19
#define 1510240946950_height 19
static char 1510240946950_bits[] = {
  0xFF, 0xFF, 0x07, 0x01, 0x00, 0x04, 0x01, 0x40, 0x04, 0x01, 0x60, 0x04, 
  0x01, 0x50, 0x04, 0x01, 0x40, 0x04, 0x01, 0x40, 0x04, 0x01, 0xF0, 0x05, 
  0x05, 0x00, 0x04, 0x0D, 0x00, 0x04, 0x1D, 0x00, 0x04, 0x3D, 0x00, 0x04, 
  0x7D, 0x00, 0x04, 0x3D, 0x00, 0x04, 0x1D, 0x00, 0x04, 0x0D, 0x00, 0x04, 
  0x05, 0x00, 0x04, 0x01, 0x00, 0x04, 0xFF, 0xFF, 0x07, };
