#define add_cell_after_width 17
#define add_cell_after_height 17
static char add_cell_after_bits[] = {
  0x00, 0x00, 0x00, 0x00, 0x00, 0x00, 0xFC, 0x01, 0x00, 0x04, 0x01, 0x00, 
  0x04, 0x01, 0x00, 0x04, 0x01, 0x00, 0x04, 0x11, 0x00, 0x04, 0x11, 0x00, 
  0x04, 0x7D, 0x00, 0x04, 0x11, 0x00, 0x04, 0x11, 0x00, 0x04, 0x01, 0x00, 
  0xFC, 0x01, 0x00, 0x04, 0x01, 0x00, 0xFC, 0x01, 0x00, 0x00, 0x00, 0x00, 
  0x00, 0x00, 0x00, };
