#define cell_select_width 7
#define cell_select_height 17
static char cell_select_bits[] = {
  0x00, 0x00, 0x00, 0x00, 0x00, 0x00, 0x00, 0x00, 0x00, 0x00, 0x00, 0x00, 
  0x00, 0x00, 0x7F, 0x7F, 0x7F, };
