#define cell_clone_select_width 7
#define cell_clone_select_height 17
static char cell_clone_select_bits[] = {
  0x00, 0x3E, 0x00, 0x3E, 0x00, 0x00, 0x00, 0x00, 0x00, 0x00, 0x00, 0x00, 
  0x00, 0x00, 0x7F, 0x7F, 0x7F, };
