#define cell_clone_width 7
#define cell_clone_height 17
static char cell_clone_bits[] = {
  0x00, 0x3E, 0x00, 0x3E, 0x00, 0x00, 0x00, 0x00, 0x00, 0x00, 0x00, 0x00, 
  0x00, 0x00, 0x7F, 0x00, 0x00, };
