#define clone_cell_width 17
#define clone_cell_height 17
static char clone_cell_bits[] = {
  0x00, 0x00, 0x00, 0x00, 0x00, 0x00, 0xFC, 0x79, 0x00, 0x04, 0x41, 0x00, 
  0x74, 0x59, 0x00, 0x04, 0x41, 0x00, 0x74, 0x59, 0x00, 0x04, 0x41, 0x00, 
  0x04, 0x41, 0x00, 0x04, 0x41, 0x00, 0x04, 0x41, 0x00, 0x04, 0x41, 0x00, 
  0xFC, 0x79, 0x00, 0x04, 0x41, 0x00, 0xFC, 0x79, 0x00, 0x00, 0x00, 0x00, 
  0x00, 0x00, 0x00, };
