#define go_to_first_cell_width 17
#define go_to_first_cell_height 17
static char go_to_first_cell_bits[] = {
  0x00, 0x00, 0x00, 0x00, 0x00, 0x00, 0x00, 0x00, 0x00, 0x00, 0x00, 0x00, 
  0x20, 0x08, 0x00, 0x20, 0x04, 0x00, 0x20, 0x02, 0x00, 0x20, 0x01, 0x00, 
  0xA0, 0x00, 0x00, 0x20, 0x01, 0x00, 0x20, 0x02, 0x00, 0x20, 0x04, 0x00, 
  0x20, 0x08, 0x00, 0x00, 0x00, 0x00, 0x00, 0x00, 0x00, 0x00, 0x00, 0x00, 
  0x00, 0x00, 0x00, };
