#define go_to_last_cell_width 17
#define go_to_last_cell_height 17
static char go_to_last_cell_bits[] = {
  0x00, 0x00, 0x00, 0x00, 0x00, 0x00, 0x00, 0x00, 0x00, 0x00, 0x00, 0x00, 
  0x20, 0x08, 0x00, 0x40, 0x08, 0x00, 0x80, 0x08, 0x00, 0x00, 0x09, 0x00, 
  0x00, 0x0A, 0x00, 0x00, 0x09, 0x00, 0x80, 0x08, 0x00, 0x40, 0x08, 0x00, 
  0x20, 0x08, 0x00, 0x00, 0x00, 0x00, 0x00, 0x00, 0x00, 0x00, 0x00, 0x00, 
  0x00, 0x00, 0x00, };
