#define move_cell_forward_width 17
#define move_cell_forward_height 17
static char move_cell_forward_bits[] = {
  0x00, 0x00, 0x00, 0x00, 0x00, 0x00, 0x00, 0x7F, 0x00, 0x00, 0x41, 0x00, 
  0x00, 0x41, 0x00, 0x00, 0x41, 0x00, 0x10, 0x41, 0x00, 0x08, 0x41, 0x00, 
  0x7C, 0x41, 0x00, 0x08, 0x41, 0x00, 0x10, 0x41, 0x00, 0x00, 0x41, 0x00, 
  0x00, 0x7F, 0x00, 0x00, 0x41, 0x00, 0x00, 0x7F, 0x00, 0x00, 0x00, 0x00, 
  0x00, 0x00, 0x00, };
