#define move_cell_backward_width 17
#define move_cell_backward_height 17
static char move_cell_backward_bits[] = {
  0x00, 0x00, 0x00, 0x00, 0x00, 0x00, 0xFC, 0x01, 0x00, 0x04, 0x01, 0x00, 
  0x04, 0x01, 0x00, 0x04, 0x01, 0x00, 0x04, 0x11, 0x00, 0x04, 0x21, 0x00, 
  0x04, 0x7D, 0x00, 0x04, 0x21, 0x00, 0x04, 0x11, 0x00, 0x04, 0x01, 0x00, 
  0xFC, 0x01, 0x00, 0x04, 0x01, 0x00, 0xFC, 0x01, 0x00, 0x00, 0x00, 0x00, 
  0x00, 0x00, 0x00, };
