#define clone_frm_after_width 19
#define clone_frm_after_height 19
static char clone_frm_after_bits[] = {
  0xFF, 0xFF, 0x07, 0x01, 0x00, 0x04, 0x01, 0x00, 0x04, 0xF9, 0xF3, 0x04, 
  0x09, 0x82, 0x04, 0xE9, 0xB2, 0x04, 0x09, 0x82, 0x04, 0xE9, 0xB2, 0x04, 
  0x09, 0x82, 0x04, 0x09, 0x82, 0x04, 0x09, 0x82, 0x04, 0x09, 0x82, 0x04, 
  0x09, 0x82, 0x04, 0xF9, 0xF3, 0x04, 0x09, 0x82, 0x04, 0xF9, 0xF3, 0x04, 
  0x01, 0x00, 0x04, 0x01, 0x00, 0x04, 0xFF, 0xFF, 0x07, };
