#define frm_select_width 9
#define frm_select_height 19
static char frm_select_bits[] = {
  0xFF, 0x01, 0x01, 0x01, 0x01, 0x01, 0x01, 0x01, 0x01, 0x01, 0x01, 0x01, 
  0x01, 0x01, 0x01, 0x01, 0x01, 0x01, 0x01, 0x01, 0x01, 0x01, 0x01, 0x01, 
  0x01, 0x01, 0x01, 0x01, 0x01, 0x01, 0xFF, 0x01, 0xFF, 0x01, 0xFF, 0x01, 
  0xFF, 0x01, };
