#define move_frm_before_width 19
#define move_frm_before_height 19
static char move_frm_before_bits[] = {
  0xFF, 0xFF, 0x07, 0x01, 0x00, 0x04, 0x01, 0x00, 0x04, 0x01, 0xFE, 0x04, 
  0x01, 0x82, 0x04, 0x01, 0x82, 0x04, 0x01, 0x82, 0x04, 0x21, 0x82, 0x04, 
  0x11, 0x82, 0x04, 0xF9, 0x82, 0x04, 0x11, 0x82, 0x04, 0x21, 0x82, 0x04, 
  0x01, 0x82, 0x04, 0x01, 0xFE, 0x04, 0x01, 0x82, 0x04, 0x01, 0xFE, 0x04, 
  0x01, 0x00, 0x04, 0x01, 0x00, 0x04, 0xFF, 0xFF, 0x07, };
